<svg version="1.1" id="Layer_1" xmlns="http://www.w3.org/2000/svg" xmlns:xlink="http://www.w3.org/1999/xlink" x="0px" y="0px"
	 width="100%" viewBox="0 0 148 183" enable-background="new 0 0 148 183" xml:space="preserve">
<path fill="#FEFFFF" opacity="1.000000" stroke="none" 
	d="
M148.000000,0.999998 
	C148.333328,2.333333 148.957153,3.666431 148.958237,5.000033 
	C149.006500,64.666656 149.000000,124.333336 148.478561,183.756256 
	C147.842316,183.151215 147.595383,182.969360 147.099640,182.643738 
	C131.192993,166.484344 115.403038,150.648117 99.703049,134.474380 
	C101.100365,132.649261 102.331352,131.085526 103.726929,129.685898 
	C117.357483,116.015602 131.019897,102.377075 144.656540,88.712837 
	C145.639832,87.727554 146.492157,86.611549 147.895737,84.989685 
	C129.284775,84.989685 111.509926,84.953835 93.735977,85.062920 
	C92.422195,85.070976 90.802177,85.805023 89.854599,86.739227 
	C83.113106,93.385536 76.509651,100.171860 69.584702,107.090614 
	C60.356350,116.057343 51.405533,124.847069 43.769897,132.345276 
	C53.388760,142.722900 62.305340,152.342834 71.332718,162.268906 
	C78.277107,169.388504 85.110695,176.201981 91.969978,183.260925 
	C91.995674,183.506393 92.000000,184.000000 92.000000,184.000000 
	C61.739750,184.000000 31.479496,184.000000 1.000000,184.000000 
	C1.000000,153.979462 1.000000,123.958389 1.196003,93.478569 
	C1.392007,93.019821 1.782661,93.057915 2.087773,93.204803 
	C11.323450,102.179092 20.254015,111.006485 29.284241,119.932381 
	C31.075588,118.250504 32.312313,117.151649 33.480049,115.983810 
	C58.674400,90.787231 83.883141,65.604973 109.040092,40.371098 
	C122.075409,27.295929 135.016388,14.126718 148.000000,0.999998 
z"/>
<path fill="#47C5FB" opacity="1.000000" stroke="none" 
	d="
M147.531342,0.999998 
	C135.016388,14.126718 122.075409,27.295929 109.040092,40.371098 
	C83.883141,65.604973 58.674400,90.787231 33.480049,115.983810 
	C32.312313,117.151649 31.075588,118.250504 29.284241,119.932381 
	C20.254015,111.006485 11.323450,102.179092 2.089999,92.838242 
	C7.361489,86.455383 12.826132,80.476967 18.529263,74.735451 
	C42.981224,50.118942 67.503418,25.572187 92.000000,1.000000 
	C110.354225,1.000000 128.708450,1.000000 147.531342,0.999998 
z"/>
<path fill="#FEFFFF" opacity="1.000000" stroke="none" 
	d="
M91.531342,1.000000 
	C67.503418,25.572187 42.981224,50.118942 18.529263,74.735451 
	C12.826132,80.476967 7.361489,86.455383 1.784887,92.691353 
	C1.782661,93.057915 1.392007,93.019821 1.196003,93.009911 
	C1.000000,62.406815 1.000000,31.813627 1.000000,1.000000 
	C31.020535,1.000000 61.041611,1.000000 91.531342,1.000000 
z"/>
<path fill="#6F8DBA" opacity="1.000000" stroke="none" 
	d="
M92.468658,184.000000 
	C92.000000,184.000000 91.995674,183.506393 92.443176,183.252121 
	C110.999222,182.987549 129.107773,182.977249 147.216324,182.966934 
	C147.595383,182.969360 147.842316,183.151215 147.978561,183.756256 
	C129.645767,184.000000 111.291542,184.000000 92.468658,184.000000 
z"/>
<path fill="#48C5FB" opacity="1.000000" stroke="none" 
	d="
M69.862244,106.913620 
	C76.509651,100.171860 83.113106,93.385536 89.854599,86.739227 
	C90.802177,85.805023 92.422195,85.070976 93.735977,85.062920 
	C111.509926,84.953835 129.284775,84.989685 147.895737,84.989685 
	C146.492157,86.611549 145.639832,87.727554 144.656540,88.712837 
	C131.019897,102.377075 117.357483,116.015602 103.726929,129.685898 
	C102.331352,131.085526 101.100365,132.649261 99.497520,134.511368 
	C99.202026,134.885880 98.794930,134.770599 98.691544,134.480789 
	C90.268806,125.815819 81.976448,117.413429 73.594208,109.101685 
	C72.602295,108.118118 71.118202,107.630913 69.862244,106.913620 
z"/>
<path fill="#01569E" opacity="1.000000" stroke="none" 
	d="
M98.794937,134.770599 
	C98.794930,134.770599 99.202026,134.885880 99.407562,134.848892 
	C115.403038,150.648117 131.192993,166.484344 147.099640,182.643738 
	C129.107773,182.977249 110.999222,182.987549 92.417480,183.006653 
	C85.110695,176.201981 78.277107,169.388504 71.652390,162.249268 
	C73.252426,160.967865 74.643585,160.012222 76.264236,159.329071 
	C84.203255,159.792145 89.262405,153.695343 88.029663,145.592529 
	C91.722191,141.788437 95.258560,138.279526 98.794937,134.770599 
z"/>
<path fill="#02B5F8" opacity="1.000000" stroke="none" 
	d="
M98.691551,134.480789 
	C95.258560,138.279526 91.722191,141.788437 87.743073,145.759064 
	C83.545135,150.499374 79.789940,154.777969 76.034744,159.056580 
	C74.643585,160.012222 73.252426,160.967865 71.541595,161.943130 
	C62.305340,152.342834 53.388760,142.722900 43.769897,132.345276 
	C51.405533,124.847069 60.356350,116.057343 69.584709,107.090622 
	C71.118202,107.630913 72.602295,108.118118 73.594208,109.101685 
	C81.976448,117.413429 90.268806,125.815819 98.691551,134.480789 
z"/>
<path fill="#01447B" opacity="1.000000" stroke="none" 
	d="
M76.264236,159.329071 
	C79.789940,154.777969 83.545135,150.499374 87.586914,146.054245 
	C89.262405,153.695343 84.203255,159.792145 76.264236,159.329071 
z"/>
</svg>