<svg version="1.1" id="Layer_1" xmlns="http://www.w3.org/2000/svg" xmlns:xlink="http://www.w3.org/1999/xlink" x="0px" y="0px"
	 width="100%" viewBox="0 0 200 200" enable-background="new 0 0 200 200" xml:space="preserve">
<path fill="#FCFDFE" opacity="1.000000" stroke="none" 
	d="
M114.951363,1.375696 
	C142.596527,1.000000 170.193329,1.055341 197.789154,0.916454 
	C200.623779,0.902188 201.086487,1.571793 201.074570,4.273432 
	C200.952728,31.869421 201.000000,59.466156 201.000000,87.531342 
	C197.726807,87.362511 198.530441,84.388435 198.136917,82.426323 
	C194.867172,66.123627 188.243820,51.468121 177.621475,38.602924 
	C162.893250,20.764929 144.349472,9.257359 121.723412,4.339554 
	C119.338783,3.821251 116.692909,3.881210 114.951363,1.375696 
z"/>
<path fill="#FCFDFE" opacity="1.000000" stroke="none" 
	d="
M83.056259,200.628418 
	C56.735828,201.000000 30.471338,200.941620 4.207939,201.084091 
	C1.367696,201.099518 0.913518,200.420135 0.925760,197.724213 
	C1.048043,170.795685 1.000000,143.866394 1.000000,116.468658 
	C4.224404,116.485489 3.789463,119.341667 4.234595,121.377609 
	C10.437505,149.748398 26.386797,171.108871 50.843456,186.340729 
	C58.525116,191.124939 66.994408,194.105377 75.650581,196.603424 
	C78.332062,197.377274 81.182793,197.904434 83.056259,200.628418 
z"/>
<path fill="#FCFEFE" opacity="1.000000" stroke="none" 
	d="
M1.303649,81.221405 
	C1.000000,55.401150 1.060352,29.801958 0.915252,4.203931 
	C0.899104,1.355086 1.592216,0.914522 4.279701,0.926407 
	C31.540270,1.046962 58.801582,1.000000 86.531342,1.000000 
	C86.536545,3.980250 83.873932,3.571890 82.014198,3.943802 
	C57.165985,8.913000 37.305321,21.747274 21.814295,41.653320 
	C16.052078,49.057796 12.099896,57.447578 7.905066,66.128479 
	C4.933024,68.229004 5.235906,71.083069 5.144274,74.161530 
	C5.075909,74.741173 5.037240,74.972206 4.916025,75.545204 
	C4.566455,76.788727 4.285633,77.687073 4.138466,78.989044 
	C3.967914,79.829132 3.792604,80.286819 3.316155,81.004456 
	C2.598231,81.504341 2.111898,81.557259 1.303649,81.221405 
z"/>
<path fill="#305FA9" opacity="1.000000" stroke="none" 
	d="
M2.595728,81.268913 
	C2.897823,80.566696 2.999002,80.163086 3.078000,79.446732 
	C3.654953,78.376984 3.461052,77.457832 3.723072,76.306854 
	C3.872482,76.012344 4.068038,75.590996 4.060518,75.358856 
	C5.048097,72.339935 4.150817,68.991890 6.778825,66.309830 
	C15.541694,45.088882 28.852531,28.125654 48.131588,16.028219 
	C59.999245,8.581374 73.003235,4.297224 86.826462,1.347564 
	C88.066673,1.000000 89.133339,1.000000 90.600006,1.000000 
	C91.836472,1.784391 92.879501,1.428461 94.223373,1.514850 
	C95.895210,1.514587 97.186089,1.514802 98.873772,1.514616 
	C101.958977,1.486180 104.648155,1.576084 107.667992,1.230714 
	C110.041664,1.000000 112.083336,1.000000 114.562500,1.000000 
	C117.395294,3.111812 120.544785,2.674010 123.335106,3.431738 
	C166.794739,15.233479 192.224182,43.493759 200.652405,87.813141 
	C201.000000,88.750000 201.000000,89.500000 201.000000,90.625000 
	C199.307159,96.081894 199.800873,101.234077 200.752609,106.696518 
	C201.000000,109.700012 201.000000,112.400032 201.000000,115.550018 
	C197.944077,140.118637 186.626907,159.857727 169.032166,176.260773 
	C159.403534,185.237244 148.119324,191.478851 135.568512,196.338745 
	C128.616455,199.173340 121.742348,200.446045 114.317429,200.771759 
	C111.958336,201.000000 109.916664,201.000000 107.437500,201.000000 
	C102.932289,199.889725 98.791473,200.733170 94.344742,200.769669 
	C90.638710,201.000000 87.277428,201.000000 83.458069,201.000000 
	C80.097801,198.786682 76.566620,198.167130 73.206978,197.084473 
	C35.111473,184.808151 11.599739,159.188950 2.828406,120.094666 
	C2.539011,118.804817 2.091921,117.550354 1.359170,116.139694 
	C1.000000,113.629440 1.000000,111.258888 1.000000,108.444168 
	C2.083134,103.599403 1.304320,99.134476 1.229707,94.350906 
	C1.000000,91.958336 1.000000,89.916664 1.000000,87.437500 
	C2.074703,85.345734 1.034546,83.148468 2.595728,81.268913 
z"/>
<path fill="#FCFEFE" opacity="1.000000" stroke="none" 
	d="
M134.788879,195.561890 
	C168.245102,182.018356 189.676971,158.347290 198.505554,123.523560 
	C199.116699,121.112968 199.682373,118.690842 200.634598,116.137039 
	C201.000000,143.251175 200.948929,170.502609 201.078278,197.753174 
	C201.091354,200.506531 200.547043,201.104446 197.765320,201.081558 
	C178.823715,200.925720 159.880203,201.000000 140.468658,201.000000 
	C138.227097,199.248779 133.650574,200.474548 134.788879,195.561890 
z"/>
<path fill="#F0F9FB" opacity="1.000000" stroke="none" 
	d="
M134.654221,195.277756 
	C134.176514,199.294327 138.637695,198.244812 139.935425,200.648621 
	C131.645767,201.000000 123.291534,201.000000 114.468651,201.000000 
	C120.538925,198.302841 127.810555,198.217407 134.654221,195.277756 
z"/>
<path fill="#1751B0" opacity="1.000000" stroke="none" 
	d="
M201.000000,106.533142 
	C200.137543,106.871529 199.123184,106.535461 199.164597,105.642517 
	C199.383453,100.922302 197.677032,96.013779 200.720337,91.263763 
	C201.000000,96.022095 201.000000,101.044182 201.000000,106.533142 
z"/>
<path fill="#2261C7" opacity="1.000000" stroke="none" 
	d="
M1.000000,94.464645 
	C2.984279,98.394203 1.899484,102.923904 1.296226,107.709633 
	C1.000000,103.643097 1.000000,99.286201 1.000000,94.464645 
z"/>
<path fill="#205FC6" opacity="1.000000" stroke="none" 
	d="
M94.463181,201.000000 
	C98.058884,199.078018 102.254189,200.021866 106.711487,200.704315 
	C102.975456,201.000000 98.950912,201.000000 94.463181,201.000000 
z"/>
<path fill="#1D5BC1" opacity="1.000000" stroke="none" 
	d="
M107.550018,1.000000 
	C105.479897,3.001141 102.538895,1.589349 99.380569,1.994761 
	C98.795303,1.807938 98.653137,1.634681 98.755486,1.230712 
	C101.700012,1.000000 104.400032,1.000000 107.550018,1.000000 
z"/>
<path fill="#E7F5FD" opacity="1.000000" stroke="none" 
	d="
M2.497213,80.976936 
	C2.423718,82.883949 2.050792,84.797600 1.338933,86.855621 
	C1.000000,85.285645 1.000000,83.571281 1.000000,81.428467 
	C1.399261,80.994522 1.798521,80.989044 2.497213,80.976936 
z"/>
<path fill="#2B69D1" opacity="1.000000" stroke="none" 
	d="
M98.583336,1.000000 
	C99.000000,1.000000 98.978638,1.491369 98.958054,1.736282 
	C97.524467,1.974025 96.111458,1.966856 94.274185,1.925855 
	C93.749260,1.722209 93.648598,1.552394 93.773964,1.191289 
	C95.388893,1.000000 96.777779,1.000000 98.583336,1.000000 
z"/>
<path fill="#6196ED" opacity="1.000000" stroke="none" 
	d="
M93.625000,1.000000 
	C94.000000,1.000000 93.965607,1.453378 93.907761,1.672701 
	C93.009659,1.781349 92.169403,1.670675 91.164566,1.280001 
	C91.750000,1.000000 92.500000,1.000000 93.625000,1.000000 
z"/>
<path fill="#E7F5FD" opacity="1.000000" stroke="none" 
	d="
M6.642881,66.153152 
	C6.172055,68.853432 5.359939,71.715714 4.300411,74.852356 
	C4.601084,72.138123 2.245939,68.408661 6.642881,66.153152 
z"/>
<path fill="#E7F5FD" opacity="1.000000" stroke="none" 
	d="
M3.625563,76.244408 
	C3.741368,76.880699 3.610254,77.749062 3.267479,78.875702 
	C3.163427,78.248146 3.271035,77.362305 3.625563,76.244408 
z"/>
<path fill="#FCFDFE" opacity="1.000000" stroke="none" 
	d="
M181.763184,47.314472 
	C218.622650,105.184753 188.870163,179.744812 122.965157,195.437271 
	C58.513233,210.783737 -3.459991,155.964127 4.652226,90.781250 
	C9.792222,49.480614 37.941952,16.896656 76.986572,7.052590 
	C116.664009,-2.951022 156.699814,12.119170 180.984314,46.198376 
	C181.177521,46.469521 181.380798,46.733498 181.763184,47.314472 
z"/>
<path fill="#225AB1" opacity="1.000000" stroke="none" 
	d="
M132.740021,64.821877 
	C135.929428,69.903313 136.903320,74.709824 133.133194,79.467178 
	C130.263031,83.088928 126.393349,84.091354 121.958252,83.093956 
	C119.952881,82.642982 118.264290,81.578323 116.885674,80.097504 
	C115.801933,78.933411 114.786720,78.726585 113.411407,79.613205 
	C112.285240,80.339203 111.679199,81.215668 112.116592,82.497276 
	C113.524460,86.622543 111.597214,90.349121 110.708611,94.166275 
	C109.703125,98.485542 109.447464,102.597961 111.465179,106.768555 
	C113.537117,111.051208 112.903450,115.158638 109.145737,118.764183 
	C107.838348,117.138145 106.557259,116.100266 104.882980,114.994225 
	C104.716103,113.952263 105.057274,113.358612 105.866913,112.641006 
	C108.302643,111.921799 109.358437,110.883926 108.317093,108.540283 
	C105.841995,102.969795 106.048286,97.479874 107.936081,91.632851 
	C110.856216,82.588348 108.084442,78.683083 98.594398,77.305687 
	C95.870102,76.910278 93.269981,76.511658 92.770569,72.604446 
	C93.479240,71.959824 93.909470,71.973587 94.656593,72.049988 
	C97.876961,72.505646 100.912537,72.443184 103.653137,74.700294 
	C104.398552,75.000252 104.814369,75.134186 105.553284,75.325157 
	C107.151421,74.984352 108.029594,75.484543 108.772118,76.904984 
	C110.272644,79.889626 112.002090,78.883781 113.897141,77.392342 
	C114.355385,76.873940 114.448845,76.582253 114.209900,76.003662 
	C114.095428,75.786568 114.134453,75.364670 114.034714,75.177773 
	C113.278702,73.983620 113.573547,72.864746 113.717422,71.401749 
	C114.259666,70.002975 114.642891,68.984711 115.078629,67.643997 
	C115.216721,66.969139 115.384041,66.659706 115.810547,66.196976 
	C115.998840,66.006393 116.000916,66.000610 116.003021,65.998756 
	C117.135262,64.324844 117.911293,62.238194 120.780052,62.264698 
	C121.547760,62.240276 121.978073,62.157795 122.715569,61.957115 
	C126.621223,61.185287 130.019073,61.261967 132.740021,64.821877 
z"/>
<path fill="#225AB1" opacity="1.000000" stroke="none" 
	d="
M67.728012,97.397697 
	C68.015366,96.597237 68.134758,96.177704 68.285690,95.431885 
	C68.160660,94.492386 68.239182,93.924255 68.900208,93.267563 
	C69.159569,93.117027 69.053635,93.044746 69.083435,93.101524 
	C69.201210,92.828751 69.384537,92.565643 69.813751,92.176636 
	C69.964287,91.984299 70.006500,91.992928 69.993675,91.975540 
	C70.214264,91.896957 70.447670,91.835770 70.957260,92.003998 
	C72.535172,93.921982 71.671349,95.731438 71.546928,97.508423 
	C71.267677,101.496964 74.055115,105.798286 77.263336,106.390602 
	C79.901779,106.877731 85.264671,103.322815 86.302185,100.398979 
	C87.980423,95.669556 83.302162,90.863907 77.598907,91.323746 
	C75.598007,91.485069 73.945915,93.039093 71.530106,92.409653 
	C71.065460,92.044243 70.912598,91.857780 70.817154,91.314240 
	C70.874580,90.957153 70.959282,90.969002 70.957520,90.926270 
	C71.142769,90.755768 71.329796,90.627991 71.734528,90.239380 
	C71.952248,89.978546 71.996803,90.003464 71.988724,89.979248 
	C72.238609,89.764954 72.478668,89.554459 72.902237,89.193466 
	C73.103653,89.063385 73.024712,89.012085 73.043846,89.055092 
	C75.063927,86.862602 77.716103,87.632126 80.581268,87.697304 
	C81.328468,87.949928 81.679131,88.059959 82.306160,88.175110 
	C82.951195,88.203415 83.277565,88.335770 83.786026,88.721489 
	C84.749733,89.535904 85.603111,90.103371 86.217598,90.863869 
	C87.460953,92.402657 88.455704,92.164154 89.864220,90.953552 
	C91.601814,89.460114 90.183853,88.738937 89.401817,87.815903 
	C86.946655,84.918060 83.858223,83.780365 80.018242,83.780998 
	C72.980713,83.782150 69.801041,81.272896 68.242935,75.147636 
	C67.127502,70.762611 69.480225,65.523643 73.573395,63.277946 
	C78.335785,60.665100 83.021454,61.737705 87.801086,66.537163 
	C87.917725,66.654289 88.015602,66.790100 88.324478,67.186157 
	C88.571365,67.697685 88.616005,67.940269 88.340271,68.359390 
	C86.196838,68.997978 84.902237,67.832336 83.193588,66.894806 
	C82.024025,66.165840 81.172180,65.539154 79.800568,65.309586 
	C78.254272,65.189957 77.018829,65.140846 75.579727,65.893600 
	C71.770699,68.290924 70.379341,71.303482 72.090874,75.639816 
	C72.527184,76.244873 72.768066,76.588951 73.181854,77.176987 
	C73.795853,78.046921 74.234299,78.674522 75.113976,79.272781 
	C75.858833,79.695107 76.364120,79.964828 77.171158,80.284698 
	C78.405518,80.720184 79.390648,80.872833 80.725616,80.821335 
	C81.264420,80.800621 81.482430,80.793739 82.033707,80.782402 
	C82.592781,80.781395 82.818596,80.784851 83.386688,80.808701 
	C88.694824,82.582397 93.710327,84.198807 96.280045,89.497139 
	C98.453598,93.978645 96.396706,98.095581 95.385368,102.662216 
	C95.110809,103.877441 94.831245,104.738182 94.624252,105.958168 
	C94.924950,109.659454 98.558250,112.156754 96.574478,116.394203 
	C95.885986,117.864853 99.179298,118.688141 101.536774,118.726196 
	C102.805382,118.668297 103.729324,118.619347 104.966988,118.229126 
	C106.298737,117.960793 107.268280,117.950073 108.503662,118.576462 
	C108.799728,118.801033 108.948235,118.950294 109.022255,119.025162 
	C105.537621,122.972626 101.210274,123.104935 96.882683,121.031380 
	C92.144730,118.761215 90.409927,114.493652 91.066902,109.437683 
	C91.598587,105.345932 92.787666,101.336418 93.256584,97.241356 
	C93.427452,95.749207 94.795609,92.782784 91.643433,92.760506 
	C89.092453,92.742477 89.107681,94.868935 89.410614,97.182632 
	C90.144295,102.786148 86.773735,107.661217 81.738525,108.974655 
	C75.974297,110.478256 71.408302,107.959106 68.166458,101.289917 
	C67.238876,100.002098 67.588364,98.865334 67.728012,97.397697 
z"/>
<path fill="#1956B5" opacity="1.000000" stroke="none" 
	d="
M95.245728,69.435287 
	C93.502457,68.319107 93.370583,66.624016 92.276184,65.196259 
	C91.540726,64.536987 91.527588,63.893551 91.232468,63.034138 
	C91.121071,62.748440 91.147400,62.347389 91.052971,62.169998 
	C90.261452,60.985287 90.578514,59.853378 90.740555,58.386391 
	C91.464493,57.036846 90.591064,55.682579 91.950897,54.594925 
	C92.226189,53.954639 92.397789,53.642406 92.857330,53.201256 
	C93.070175,53.032257 93.002945,53.010090 93.020767,53.040665 
	C93.217117,52.806335 93.424217,52.566067 93.815392,52.169888 
	C93.970879,51.989346 94.001617,52.001690 93.995468,51.986301 
	C94.232262,51.762897 94.472855,51.552212 94.895264,51.185135 
	C95.392487,51.026272 95.666649,50.920368 96.009926,50.517326 
	C96.597221,49.166130 97.698135,49.666622 98.813087,49.235134 
	C100.734825,49.071381 102.361755,49.091995 104.395378,49.101570 
	C105.337326,49.384468 105.927124,49.508228 106.748024,49.830147 
	C107.961723,50.883385 108.941963,51.745842 110.178925,52.815659 
	C110.476013,53.208908 110.516388,53.394798 110.808342,53.715286 
	C111.059929,53.849888 111.026260,53.937969 111.072533,53.947014 
	C111.293282,54.250648 111.488228,54.531116 111.788681,55.040512 
	C111.876633,55.281555 111.891060,55.686218 112.007309,55.851978 
	C112.866486,58.115803 112.315025,60.286720 112.476532,62.819542 
	C112.360634,64.041122 112.011200,64.751633 111.211975,65.671768 
	C110.931046,65.957588 110.999939,65.987183 110.979584,65.955696 
	C110.788704,66.194321 110.580879,66.431786 110.192413,66.825722 
	C108.841454,67.856049 107.633842,68.697258 106.212128,69.771393 
	C102.467552,71.204857 98.901497,73.992165 95.245728,69.435287 
z"/>
<path fill="#424C5B" opacity="1.000000" stroke="none" 
	d="
M41.781586,151.953674 
	C36.650452,154.915619 32.151203,154.294510 28.331596,150.444122 
	C24.934477,147.019608 24.522102,142.811966 26.648691,138.545609 
	C28.813444,134.202682 32.579937,132.431549 37.316231,132.972427 
	C41.473385,133.447174 44.483170,135.864426 45.736782,139.754166 
	C47.234173,144.400299 46.071312,148.586914 41.781586,151.953674 
z"/>
<path fill="#4A5260" opacity="1.000000" stroke="none" 
	d="
M63.080650,144.010162 
	C64.044167,150.088852 62.063435,153.217758 56.724457,153.761734 
	C54.750519,153.962845 53.630428,154.058929 53.883694,156.360291 
	C54.090794,158.242172 52.797451,158.458908 51.321861,158.419312 
	C49.451645,158.369156 49.314011,157.141525 49.320366,155.708206 
	C49.340157,151.247040 49.406582,146.783524 49.287727,142.325378 
	C49.228977,140.121536 50.107922,139.322861 52.213017,139.543060 
	C56.170261,139.957016 60.729843,138.761444 63.080650,144.010162 
z"/>
<path fill="#434B5A" opacity="1.000000" stroke="none" 
	d="
M112.735390,153.885239 
	C108.946808,154.205338 108.124130,150.548065 105.550690,149.431412 
	C104.546921,150.086975 104.971855,151.142426 104.951210,151.997513 
	C104.912651,153.595428 104.016693,153.859528 102.681946,153.882523 
	C101.147690,153.908951 100.613815,153.110565 100.609192,151.753571 
	C100.592239,146.778610 100.608620,141.803452 100.568916,136.828705 
	C100.557632,135.415726 101.072327,134.785416 102.563362,134.641525 
	C105.961098,134.313644 104.328804,137.433289 105.429428,138.741776 
	C108.180038,137.545212 109.477837,133.389130 114.097580,135.157227 
	C111.912041,137.500504 109.995209,139.820343 107.795845,141.831116 
	C105.994736,143.477783 106.347549,144.424637 107.755714,146.244125 
	C109.641655,148.680969 113.434433,149.885803 112.735390,153.885239 
z"/>
<path fill="#474F5C" opacity="1.000000" stroke="none" 
	d="
M143.773285,148.339584 
	C145.469070,147.777969 146.971924,147.932236 147.598770,149.212372 
	C148.320389,150.686050 146.766830,151.591522 145.781677,152.310959 
	C142.668182,154.584717 139.447556,154.397675 136.711884,151.774246 
	C133.971878,149.146698 133.590042,145.823074 135.788437,142.721695 
	C138.109451,139.447296 141.374573,138.765686 145.043030,140.571915 
	C146.615372,141.346069 148.015518,142.562805 148.011383,144.281158 
	C148.006653,146.246094 145.748642,145.798477 144.283630,146.776459 
	C143.580994,147.551270 142.830032,147.812317 142.627625,148.554352 
	C142.887909,148.411667 143.168869,148.330719 143.773285,148.339584 
z"/>
<path fill="#454E5B" opacity="1.000000" stroke="none" 
	d="
M76.722580,148.140717 
	C78.198318,148.084686 79.576553,148.183289 79.950928,149.431747 
	C80.340805,150.731888 79.037949,151.475983 78.165634,152.145279 
	C75.117889,154.483688 71.957375,154.478531 69.103508,151.910660 
	C66.238518,149.332794 65.945168,146.050461 67.887321,142.877136 
	C69.906654,139.577728 73.134964,139.016174 76.637833,140.215897 
	C78.442406,140.833939 79.991463,142.136154 80.206589,144.059967 
	C80.490143,146.595703 77.684357,145.503784 76.324837,146.800613 
	C75.727509,147.347900 75.236046,147.686249 75.358284,148.115875 
	C75.523033,148.694946 76.056190,148.265457 76.722580,148.140717 
z"/>
<path fill="#4E5662" opacity="1.000000" stroke="none" 
	d="
M97.177231,144.136444 
	C97.419945,146.671860 97.565453,148.823349 97.642326,150.977310 
	C97.698647,152.555237 97.616219,154.015945 95.361847,153.942490 
	C93.040031,153.866867 93.329666,152.226273 93.273880,150.760376 
	C93.223289,149.431091 93.247520,148.098312 93.173531,146.770721 
	C93.088821,145.250641 92.335732,144.211197 90.734665,144.180542 
	C88.927338,144.145905 88.001579,145.190247 87.938843,146.965256 
	C87.880081,148.628036 87.882256,150.292969 87.858086,151.956955 
	C87.841583,153.093552 87.428345,153.885834 86.145943,153.900726 
	C85.327957,153.910217 84.543694,153.964554 84.047180,153.029861 
	C82.867798,150.809570 84.316902,142.595016 86.177696,141.276672 
	C89.476135,138.939789 93.696404,139.901184 97.177231,144.136444 
z"/>
<path fill="#4A5160" opacity="1.000000" stroke="none" 
	d="
M131.475601,148.282745 
	C131.455643,149.855637 131.427612,151.015518 131.422195,152.175491 
	C131.416275,153.440826 130.710785,153.873398 129.538559,153.913864 
	C128.183380,153.960678 127.259644,153.553741 127.223427,152.039047 
	C127.183800,150.381638 127.168800,148.723526 127.155945,147.065613 
	C127.142044,145.272476 126.213043,144.179611 124.467415,144.166397 
	C122.678825,144.152878 121.840263,145.322647 121.823425,147.084229 
	C121.807587,148.742020 121.808182,150.400421 121.758217,152.057266 
	C121.722839,153.230148 121.087494,153.879333 119.893097,153.873795 
	C119.263168,153.870880 118.350182,154.056152 118.206459,153.259293 
	C117.616272,149.987167 117.339073,146.601913 118.397888,143.457077 
	C119.292015,140.801376 121.872391,140.080460 124.522598,140.113403 
	C129.011230,140.169205 130.944382,142.356033 131.475601,148.282745 
z"/>
<path fill="#4E5662" opacity="1.000000" stroke="none" 
	d="
M167.345184,149.343384 
	C167.308701,145.442032 167.284225,141.971436 167.321655,138.501495 
	C167.333801,137.376022 167.230972,136.053238 168.891251,135.921921 
	C170.059448,135.829498 171.345978,135.742432 171.484192,137.395798 
	C171.602158,138.806885 172.483154,139.119949 173.643311,139.630173 
	C175.878464,140.613174 175.481949,142.115356 173.529099,142.958511 
	C169.743530,144.592957 171.395325,147.348679 172.433289,149.401520 
	C173.127350,150.774200 175.837677,151.843201 173.775375,153.382767 
	C171.879578,154.798035 169.272995,154.249573 167.917007,151.675446 
	C167.616913,151.105759 167.553589,150.411362 167.345184,149.343384 
z"/>
<path fill="#4B535D" opacity="1.000000" stroke="none" 
	d="
M155.938721,147.578705 
	C156.869598,149.858566 158.350388,150.162170 160.138870,149.590607 
	C161.838898,149.047302 162.809967,150.101456 163.108139,151.384567 
	C163.472000,152.950195 161.821091,153.062424 160.829559,153.397659 
	C157.537445,154.510651 154.923157,153.235764 153.039597,150.598740 
	C151.224640,148.057724 151.317154,145.251678 153.053131,142.680176 
	C154.959244,139.856628 157.778015,139.194168 160.950821,139.989578 
	C162.001083,140.252884 163.475952,140.581894 163.050415,142.141663 
	C162.743515,143.266632 161.775055,144.149796 160.398849,143.858307 
	C157.606293,143.266830 155.772720,143.881241 155.938721,147.578705 
z"/>
<path fill="#E8F4FC" opacity="1.000000" stroke="none" 
	d="
M95.000809,69.478302 
	C98.256493,70.954414 101.619263,71.635551 105.593147,70.009735 
	C105.241425,71.439041 102.145119,71.635620 103.852379,74.585770 
	C101.344894,73.012833 97.726044,75.367867 95.110596,72.471405 
	C94.983292,71.359962 94.993103,70.607292 95.000809,69.478302 
z"/>
<path fill="#E8F4FC" opacity="1.000000" stroke="none" 
	d="
M132.937927,64.784637 
	C130.162125,63.330334 127.372673,61.564175 123.419922,61.900398 
	C126.767258,60.995560 130.805283,59.006828 132.937927,64.784637 
z"/>
<path fill="#E8F4FC" opacity="1.000000" stroke="none" 
	d="
M120.933746,62.013306 
	C119.601997,63.449009 118.086540,64.575264 116.288101,65.849213 
	C116.203484,63.037006 116.868729,60.593136 120.933746,62.013306 
z"/>
<path fill="#D0DBE7" opacity="1.000000" stroke="none" 
	d="
M76.801758,147.886475 
	C75.650711,149.569275 74.218704,150.846985 71.781281,149.070480 
	C72.411537,147.425613 74.134079,147.646088 75.626465,146.998871 
	C76.088562,147.345062 76.282700,147.597748 76.801758,147.886475 
z"/>
<path fill="#DEF1FD" opacity="1.000000" stroke="none" 
	d="
M80.686996,87.580803 
	C78.567406,88.008682 76.086662,87.743912 73.457497,89.047035 
	C74.693024,85.144188 77.865364,87.557083 80.686996,87.580803 
z"/>
<path fill="#D8E1EB" opacity="1.000000" stroke="none" 
	d="
M144.058105,148.024323 
	C142.685059,150.369446 141.181168,150.614975 139.104065,148.520401 
	C140.717941,147.915604 142.004929,147.433289 143.643494,146.972900 
	C144.010071,147.223526 144.025085,147.452255 144.058105,148.024323 
z"/>
<path fill="#225AB1" opacity="1.000000" stroke="none" 
	d="
M88.387299,67.595718 
	C89.941124,68.757500 91.355522,70.059891 92.909454,71.654175 
	C93.049004,71.946068 92.937012,72.061546 92.880745,72.119019 
	C89.783653,73.063866 88.336166,71.557129 87.854538,68.406616 
	C87.978989,68.027145 88.247856,67.736336 88.387299,67.595718 
z"/>
<path fill="#E8F4FC" opacity="1.000000" stroke="none" 
	d="
M108.932648,76.827446 
	C108.028542,76.749947 107.148071,76.291359 106.071991,75.607483 
	C106.352005,74.415192 106.759377,73.089584 108.130463,73.563278 
	C109.454407,74.020676 108.826958,75.428490 108.932648,76.827446 
z"/>
<path fill="#E1F2FC" opacity="1.000000" stroke="none" 
	d="
M112.204559,64.174393 
	C112.166977,61.626709 112.754829,59.280392 112.114792,56.462063 
	C113.936020,58.203083 112.757584,60.762360 112.999985,63.568840 
	C112.810959,64.119484 112.636215,64.243500 112.204559,64.174393 
z"/>
<path fill="#E8F4FC" opacity="1.000000" stroke="none" 
	d="
M111.747551,64.185883 
	C112.120682,63.984879 112.293732,63.988476 112.726234,63.993767 
	C112.912399,64.921112 112.661873,65.717056 111.258301,65.933113 
	C111.136520,65.435219 111.341995,64.912857 111.747551,64.185883 
z"/>
<path fill="#E8F4FC" opacity="1.000000" stroke="none" 
	d="
M113.636108,71.241570 
	C113.931831,72.081055 113.987206,73.140854 113.988777,74.595764 
	C112.711479,73.974022 112.829979,72.752129 113.636108,71.241570 
z"/>
<path fill="#DEF1FD" opacity="1.000000" stroke="none" 
	d="
M67.655182,97.239853 
	C67.954094,98.077736 68.012222,99.138702 68.028175,100.596619 
	C66.712593,99.992004 66.847008,98.762512 67.655182,97.239853 
z"/>
<path fill="#DEF1FD" opacity="1.000000" stroke="none" 
	d="
M68.841331,93.119888 
	C69.024628,93.660255 68.889679,94.203484 68.535980,94.926163 
	C67.044937,94.305443 66.884705,93.620728 68.841331,93.119888 
z"/>
<path fill="#DAF2FC" opacity="1.000000" stroke="none" 
	d="
M90.673920,58.228539 
	C90.968597,59.073532 91.017845,60.136765 91.012817,61.596306 
	C89.722595,60.969009 89.839783,59.743137 90.673920,58.228539 
z"/>
<path fill="#E1F2FC" opacity="1.000000" stroke="none" 
	d="
M98.743187,49.017906 
	C98.328232,49.431812 97.548569,49.812866 96.443436,50.257439 
	C96.440575,49.146519 97.369301,48.997723 98.743187,49.017906 
z"/>
<path fill="#DAF2FC" opacity="1.000000" stroke="none" 
	d="
M91.081726,63.076496 
	C91.420494,63.283127 91.719917,63.817814 92.022446,64.670059 
	C91.697830,64.459930 91.370110,63.932243 91.081726,63.076496 
z"/>
<path fill="#E1F2FC" opacity="1.000000" stroke="none" 
	d="
M106.801796,49.755173 
	C106.391327,49.867146 105.801170,49.713364 105.006546,49.325054 
	C105.408752,49.223488 106.015427,49.356449 106.801796,49.755173 
z"/>
<path fill="#E8F4FC" opacity="1.000000" stroke="none" 
	d="
M110.272377,66.901222 
	C110.197075,66.718658 110.345085,66.422485 110.726158,66.025253 
	C110.804710,66.212006 110.650200,66.499802 110.272377,66.901222 
z"/>
<path fill="#DEF1FD" opacity="1.000000" stroke="none" 
	d="
M83.830444,88.657898 
	C83.642448,88.800346 83.280449,88.719597 82.750488,88.409531 
	C82.940506,88.265053 83.298470,88.349884 83.830444,88.657898 
z"/>
<path fill="#DEF1FD" opacity="1.000000" stroke="none" 
	d="
M72.855576,89.121712 
	C72.897148,89.325615 72.690636,89.587845 72.232391,89.902557 
	C72.189598,89.696709 72.398544,89.438377 72.855576,89.121712 
z"/>
<path fill="#DEF1FD" opacity="1.000000" stroke="none" 
	d="
M71.730728,90.059616 
	C71.912117,90.330299 71.738297,90.593880 71.193268,90.826416 
	C71.045082,90.565018 71.229561,90.317398 71.730728,90.059616 
z"/>
<path fill="#E8F4FC" opacity="1.000000" stroke="none" 
	d="
M114.057480,76.112900 
	C114.282410,76.016350 114.498184,76.230202 114.639381,76.485321 
	C114.683533,76.565094 114.526535,76.756187 114.252800,76.996063 
	C114.035828,76.876945 114.027672,76.658089 114.057480,76.112900 
z"/>
<path fill="#DEF1FD" opacity="1.000000" stroke="none" 
	d="
M70.841949,91.618134 
	C70.844193,91.836136 70.408989,91.872078 70.194916,91.915115 
	C70.022369,91.625336 70.176903,91.357811 70.659523,91.056366 
	C70.874580,90.957153 70.839714,91.400124 70.841949,91.618134 
z"/>
<path fill="#E1F2FC" opacity="1.000000" stroke="none" 
	d="
M94.835304,51.104294 
	C94.883911,51.305202 94.688423,51.578999 94.241135,51.911854 
	C94.189957,51.706337 94.390587,51.441761 94.835304,51.104294 
z"/>
<path fill="#E1F2FC" opacity="1.000000" stroke="none" 
	d="
M93.741272,52.095848 
	C93.821152,52.288647 93.671417,52.587944 93.280136,52.979240 
	C93.196281,52.781612 93.353966,52.491982 93.741272,52.095848 
z"/>
<path fill="#E1F2FC" opacity="1.000000" stroke="none" 
	d="
M92.815323,53.160797 
	C92.924728,53.368969 92.779282,53.705681 92.387527,54.177757 
	C92.280983,53.971859 92.420723,53.630596 92.815323,53.160797 
z"/>
<path fill="#E1F2FC" opacity="1.000000" stroke="none" 
	d="
M111.009415,53.675953 
	C110.780037,53.808910 110.574768,53.663010 110.439880,53.217598 
	C110.674019,53.112808 110.848434,53.272472 111.009415,53.675953 
z"/>
<path fill="#E1F2FC" opacity="1.000000" stroke="none" 
	d="
M111.854492,55.011269 
	C111.639931,55.021152 111.403221,54.760750 111.142654,54.228203 
	C111.356651,54.217701 111.594498,54.479343 111.854492,55.011269 
z"/>
<path fill="#DEF1FD" opacity="1.000000" stroke="none" 
	d="
M69.739395,92.110977 
	C69.840286,92.302414 69.716293,92.620529 69.352760,93.048477 
	C69.246986,92.851425 69.380745,92.544540 69.739395,92.110977 
z"/>
<path fill="#E8F4FC" opacity="1.000000" stroke="none" 
	d="
M115.758598,66.151917 
	C115.868050,66.346603 115.737244,66.686813 115.368790,67.174286 
	C115.260216,66.980179 115.389282,66.638809 115.758598,66.151917 
z"/>
<path fill="#0F52BB" opacity="1.000000" stroke="none" 
	d="
M87.638908,67.980865 
	C88.766602,69.998505 90.084167,71.406929 92.503899,72.080811 
	C93.746948,75.636986 96.385887,75.755127 99.388542,76.124046 
	C103.304726,76.605217 108.003815,76.753189 109.547897,81.467224 
	C110.622589,84.748238 110.835342,88.574280 109.447823,91.735977 
	C106.770401,97.836990 107.142815,103.527374 110.119217,109.265564 
	C110.739594,110.461555 111.359245,111.655502 110.339432,112.959740 
	C109.174942,114.448997 107.929787,113.263161 106.360909,113.056564 
	C105.168694,113.374802 103.450462,110.001221 103.309761,113.790657 
	C103.240585,115.653969 102.318230,117.508080 102.220612,119.741165 
	C100.681503,119.956726 99.121620,120.340065 98.096649,119.766884 
	C96.306190,118.765633 93.850716,118.090996 95.890007,114.643768 
	C97.604820,111.745071 93.458153,109.625031 93.050819,106.366463 
	C93.648605,105.233948 95.772293,105.288818 94.229752,103.214218 
	C96.123215,99.916054 94.837959,96.107063 96.196388,92.730576 
	C96.747406,91.360970 95.133842,87.747192 93.741653,87.236610 
	C90.126572,85.910797 87.850212,82.178497 83.374008,82.009026 
	C82.553085,80.369370 84.052773,80.219284 84.870232,79.556801 
	C86.480278,78.252007 89.034073,77.272934 87.966316,74.625374 
	C86.999702,72.228607 84.622978,72.419647 81.694946,72.730095 
	C83.451744,74.377991 86.739510,73.735413 86.323761,76.473083 
	C85.951073,78.927185 84.016884,79.909996 81.254272,79.889481 
	C78.805984,79.194633 77.823624,77.414978 76.534470,75.435905 
	C75.797035,73.701920 75.524490,72.244087 75.601433,70.374725 
	C77.303169,67.719688 79.907211,67.092865 82.663834,66.057617 
	C84.805313,65.826309 85.699379,67.653969 87.638908,67.980865 
z"/>
<path fill="#1152B7" opacity="1.000000" stroke="none" 
	d="
M102.338943,120.003113 
	C99.048134,117.332253 103.387550,114.002495 101.268120,111.212639 
	C101.248741,111.187126 102.090805,110.214043 102.602570,110.132050 
	C104.266815,109.865379 105.470566,110.552170 105.960739,112.654404 
	C105.749260,113.505608 105.490944,113.987976 105.122528,114.721764 
	C106.101273,116.079483 105.559219,117.253204 105.088043,118.721375 
	C104.474693,119.909698 103.595192,120.001770 102.338943,120.003113 
z"/>
<path fill="#0B53BB" opacity="1.000000" stroke="none" 
	d="
M105.401917,119.016129 
	C103.370071,117.923706 104.933319,116.759407 104.981659,115.300133 
	C107.146828,114.944603 109.373497,114.798775 108.862282,118.426666 
	C107.794060,118.870934 106.788399,118.940834 105.401917,119.016129 
z"/>
<path fill="#0E53BA" opacity="1.000000" stroke="none" 
	d="
M70.917725,91.920120 
	C72.248276,92.111214 73.225632,91.371445 74.430252,90.716591 
	C78.398964,88.559143 86.098396,91.101295 87.756042,94.853264 
	C89.512711,98.829323 87.426369,103.070213 82.813683,106.019913 
	C79.899376,107.883537 77.130753,108.946533 74.279175,106.514313 
	C71.292702,103.967026 69.110718,100.903610 70.269829,96.561829 
	C70.606590,95.300407 70.729530,93.981888 70.897339,92.262840 
	C70.844193,91.836136 70.998566,91.995781 70.917725,91.920120 
z"/>
<path fill="#1152B8" opacity="1.000000" stroke="none" 
	d="
M80.773293,79.234924 
	C81.957054,78.821274 83.054520,78.871712 83.828423,78.395905 
	C84.584198,77.931221 85.463875,76.937691 85.478287,76.161270 
	C85.502541,74.854103 84.127327,75.076393 83.188484,75.009811 
	C81.571281,74.895119 79.352455,75.156212 79.444626,72.895851 
	C79.548424,70.350121 82.009895,71.724037 83.400726,71.316742 
	C86.464409,70.419540 88.795570,71.970581 89.743500,74.501480 
	C90.677963,76.996429 88.549538,78.720047 86.504654,79.968353 
	C85.537407,80.558800 84.461197,80.970757 83.217041,81.732719 
	C82.832993,82.002678 82.666245,82.003502 82.249390,82.002838 
	C81.671173,81.714470 81.310432,81.476326 80.729240,81.015411 
	C80.421463,80.322815 80.424286,79.895340 80.773293,79.234924 
z"/>
<path fill="#0D53B8" opacity="1.000000" stroke="none" 
	d="
M82.864090,65.692368 
	C81.987396,69.001999 78.449959,68.013206 76.363655,69.959023 
	C73.436806,71.549805 74.857491,75.082726 72.306839,76.903290 
	C68.462708,72.770462 69.162331,69.294952 74.677010,65.128563 
	C76.599434,65.638412 77.983086,64.547981 79.743866,64.207184 
	C81.148827,63.999287 82.074821,64.431396 82.864090,65.692368 
z"/>
<path fill="#0D53B8" opacity="1.000000" stroke="none" 
	d="
M80.711296,78.858269 
	C81.000832,79.445282 81.000443,79.889397 81.000031,80.666595 
	C81.127594,81.166039 81.255196,81.332390 81.191864,81.748604 
	C79.821365,81.851387 78.641815,81.704300 77.226173,81.288818 
	C76.598999,80.579369 76.160904,80.207222 75.282959,80.033424 
	C74.085007,79.932098 73.294357,79.687592 73.030701,78.323433 
	C73.692909,76.485458 74.656731,75.235466 76.677063,74.871994 
	C78.856705,75.578362 78.914795,77.813904 80.711296,78.858269 
z"/>
<path fill="#1251BA" opacity="1.000000" stroke="none" 
	d="
M76.999237,74.627098 
	C75.877907,75.972603 74.756432,76.945274 73.311363,77.960327 
	C72.668571,77.901367 72.410042,77.715591 72.103729,77.229126 
	C73.088623,75.276741 73.029915,73.336174 73.018723,71.394875 
	C73.009369,69.772827 73.550995,68.845108 75.677444,69.867264 
	C76.739761,71.322838 77.145775,72.723663 76.999237,74.627098 
z"/>
<path fill="#0F52BB" opacity="1.000000" stroke="none" 
	d="
M79.612724,63.994373 
	C78.356117,64.523781 77.676353,67.983627 75.038216,65.298943 
	C76.137329,63.510033 77.772820,64.140114 79.612724,63.994373 
z"/>
<path fill="#1053B6" opacity="1.000000" stroke="none" 
	d="
M93.981308,103.314911 
	C95.086273,103.140297 96.665283,102.714111 96.721931,104.361671 
	C96.792221,106.406174 94.989693,105.822113 93.406174,106.004417 
	C93.331367,105.217041 93.641663,104.425621 93.981308,103.314911 
z"/>
<path fill="#0F52BB" opacity="1.000000" stroke="none" 
	d="
M75.161072,80.256454 
	C75.908661,78.899719 76.530968,79.158798 76.963348,80.724884 
	C76.436623,80.846954 75.883171,80.673477 75.161072,80.256454 
z"/>
<path fill="#0F52BB" opacity="1.000000" stroke="none" 
	d="
M81.250504,82.000420 
	C81.000916,81.998474 80.999893,81.499084 80.999947,81.249390 
	C81.322563,81.101830 81.583527,81.289581 81.891083,81.782150 
	C81.999275,82.001343 81.500084,82.002365 81.250504,82.000420 
z"/>
<path fill="#F4F6F8" opacity="1.000000" stroke="none" 
	d="
M39.058743,148.433960 
	C34.654770,149.986313 31.383436,149.071075 30.097246,144.726196 
	C29.201736,141.701080 30.513815,139.205338 33.457626,137.788742 
	C36.264320,136.438141 38.752003,137.209381 40.545322,139.487289 
	C43.024845,142.636841 42.377644,145.632553 39.058743,148.433960 
z"/>
<path fill="#E9F1F5" opacity="1.000000" stroke="none" 
	d="
M53.870193,146.774323 
	C53.857567,144.201462 55.064880,143.369919 57.037106,143.663040 
	C58.668957,143.905609 59.717392,144.957809 59.782356,146.654602 
	C59.838764,148.127823 58.965141,149.245682 57.641701,149.662170 
	C55.537678,150.324310 54.102974,149.581787 53.870193,146.774323 
z"/>
<path fill="#1053B6" opacity="1.000000" stroke="none" 
	d="
M100.911224,98.671989 
	C100.640976,100.892479 101.900391,103.039398 99.933098,104.548027 
	C99.803795,104.647171 99.159218,104.404709 99.098198,104.212143 
	C98.380135,101.946518 98.895607,99.771820 99.697777,97.631699 
	C100.082619,97.853127 100.467453,98.074554 100.911224,98.671989 
z"/>
<path fill="#225AB1" opacity="1.000000" stroke="none" 
	d="
M78.300072,104.521141 
	C77.411270,104.891304 76.765541,104.880890 76.518150,104.109932 
	C76.451500,103.902237 76.699074,103.398178 76.899368,103.334320 
	C77.750183,103.063110 78.527565,103.083641 78.300072,104.521141 
z"/>
</svg>