<?xml version="1.0" standalone="no"?>
<!DOCTYPE svg PUBLIC "-//W3C//DTD SVG 20010904//EN"
 "http://www.w3.org/TR/2001/REC-SVG-20010904/DTD/svg10.dtd">
<svg version="1.0" xmlns="http://www.w3.org/2000/svg"
 width="345.000000pt" height="102.000000pt" viewBox="0 0 345.000000 102.000000"
 preserveAspectRatio="xMidYMid meet">

<g transform="translate(0.000000,102.000000) scale(0.100000,-0.100000)"
fill="#000000" stroke="none">
<path d="M0 510 l0 -510 1725 0 1725 0 0 510 0 510 -1725 0 -1725 0 0 -510z
m407 305 c67 -20 79 -35 58 -74 -18 -36 -22 -37 -85 -14 -63 22 -100 9 -100
-37 0 -33 -3 -31 105 -72 79 -30 109 -72 102 -141 -12 -137 -167 -191 -304
-107 l-33 19 21 36 c24 41 27 41 80 14 54 -27 109 -23 126 10 8 17 9 30 2 44
-10 18 -25 26 -121 61 -150 55 -94 270 73 275 14 1 48 -6 76 -14z m1923 -85
l0 -50 40 0 c39 0 40 -1 40 -35 0 -34 -1 -35 -40 -35 l-41 0 3 -97 3 -98 28 0
c20 0 33 -8 42 -25 19 -34 19 -35 -10 -48 -33 -15 -87 -15 -118 -1 -38 17 -47
50 -47 164 0 100 -1 104 -22 107 -17 2 -24 11 -26 31 -3 23 1 28 26 33 26 5
31 12 36 47 9 54 12 57 52 57 l34 0 0 -50z m-1145 -64 c58 -38 79 -175 39
-251 -29 -56 -78 -88 -129 -82 -22 2 -48 7 -57 11 -16 7 -18 1 -18 -58 l0 -66
-50 0 -50 0 0 230 0 230 41 0 c32 0 42 -4 46 -20 5 -19 6 -19 32 -1 47 33 102
36 146 7z m312 14 c53 0 126 -114 108 -170 -5 -17 -18 -20 -116 -22 l-109 -3
18 -35 c14 -28 24 -36 52 -38 19 -2 52 2 73 9 34 11 40 11 59 -8 25 -25 19
-37 -32 -63 -51 -26 -129 -26 -179 0 -100 50 -120 208 -39 288 32 30 98 54
126 46 8 -2 25 -4 39 -4z m369 2 c6 -4 9 -26 6 -49 -4 -42 -5 -43 -40 -43 -63
0 -72 -18 -72 -147 l0 -113 -50 0 -50 0 0 176 0 175 43 -3 c35 -3 43 -7 45
-27 l4 -23 15 22 c23 32 74 49 99 32z m257 -19 c32 -16 32 -20 9 -51 -16 -20
-22 -22 -46 -13 -15 6 -41 11 -57 11 -26 0 -30 -4 -27 -22 2 -16 17 -28 55
-43 74 -29 93 -50 93 -99 0 -72 -51 -116 -134 -116 -52 0 -126 26 -126 45 0 6
9 20 20 30 18 16 25 17 54 7 44 -16 71 -15 86 3 17 21 1 39 -49 54 -22 6 -54
23 -71 37 -24 21 -30 34 -30 66 0 47 13 73 43 90 54 29 124 30 180 1z m537 11
c65 -26 80 -66 80 -219 l0 -125 -30 0 c-17 0 -37 8 -46 19 -16 18 -17 18 -51
-1 -26 -16 -45 -19 -85 -16 -63 7 -88 32 -88 90 0 63 41 92 163 113 41 7 48
26 20 57 -20 22 -42 23 -87 1 -34 -16 -37 -16 -56 2 -27 24 -25 41 5 61 52 34
118 41 175 18z m348 7 c8 -5 12 -23 10 -47 -3 -37 -5 -39 -39 -42 -59 -5 -68
-23 -71 -147 l-3 -110 -50 0 -50 0 -3 173 -2 172 44 0 c37 0 45 -4 49 -22 l6
-22 23 21 c35 31 63 39 86 24z m265 -20 c32 -18 33 -21 7 -49 -17 -18 -24 -19
-49 -11 -44 16 -86 8 -86 -15 0 -15 15 -26 60 -43 69 -26 95 -53 95 -95 0 -96
-108 -147 -220 -102 -43 17 -48 29 -27 59 11 14 21 16 43 11 67 -17 85 -18 98
-6 23 18 8 37 -42 56 -69 26 -90 42 -102 79 -12 36 3 88 32 112 38 32 138 34
191 4z m-2633 -104 c0 -132 5 -147 49 -147 52 0 61 22 61 152 l0 118 50 0 50
0 0 -175 0 -175 -40 0 c-29 0 -42 5 -50 20 l-11 21 -26 -21 c-17 -13 -41 -20
-70 -20 -38 0 -50 5 -79 34 l-34 34 0 141 0 141 50 0 50 0 0 -123z m838 -346
c21 -13 11 -55 -15 -59 -13 -2 -23 -12 -26 -25 -2 -12 -5 4 -6 36 -1 48 2 57
17 57 9 0 23 -4 30 -9z m86 3 c18 -7 22 -39 5 -49 -7 -5 -5 -15 6 -31 8 -13
11 -24 6 -24 -6 0 -15 9 -21 20 -6 11 -15 20 -20 20 -6 0 -10 -9 -10 -20 0
-11 -4 -20 -10 -20 -5 0 -10 25 -10 55 0 57 10 66 54 49z m118 -11 c20 -18 24
-63 6 -81 -15 -15 -61 -15 -76 0 -17 17 -15 58 5 80 20 22 41 23 65 1z m108 7
c0 -5 -11 -10 -25 -10 -32 0 -34 -29 -2 -31 l22 -2 -22 -4 c-16 -3 -23 -11
-23 -29 0 -13 -4 -24 -10 -24 -5 0 -10 25 -10 55 l0 55 35 0 c19 0 35 -4 35
-10z m80 0 c0 -5 -11 -10 -25 -10 -32 0 -34 -29 -2 -31 l22 -2 -22 -4 c-34 -6
-30 -41 5 -46 25 -4 25 -4 -5 -6 l-33 -1 0 55 c0 54 0 55 30 55 17 0 30 -4 30
-10z m75 0 c4 -6 -5 -10 -19 -10 -33 0 -33 -18 0 -30 36 -14 30 -54 -8 -58
-16 -2 -28 1 -28 6 0 5 10 8 21 8 32 -1 35 22 5 34 -41 15 -33 56 11 59 6 1
15 -3 18 -9z m80 0 c4 -6 -5 -10 -19 -10 -33 0 -33 -18 0 -30 36 -14 30 -54
-8 -58 -16 -2 -28 1 -28 6 0 5 10 8 21 8 32 -1 35 22 5 34 -41 15 -33 56 11
59 6 1 15 -3 18 -9z m45 -51 c0 -27 -4 -49 -10 -49 -5 0 -10 25 -10 56 0 34 4
53 10 49 6 -3 10 -28 10 -56z m102 44 c35 -32 15 -93 -30 -93 -35 0 -52 16
-52 49 0 28 26 61 48 61 9 0 24 -7 34 -17z m121 -28 c3 36 4 35 5 -12 1 -29
-1 -53 -5 -53 -5 0 -21 19 -38 43 l-30 42 -6 -45 c-6 -44 -6 -44 -7 15 l-1 60
39 -45 38 -45 5 40z m94 -7 c20 -52 21 -80 2 -45 -12 21 -48 22 -55 2 -4 -8
-10 -15 -14 -15 -4 0 1 25 13 55 11 30 23 55 27 55 4 0 16 -24 27 -52z m233
-3 c0 -30 -3 -55 -7 -55 -5 0 -19 17 -33 37 l-25 37 -3 -37 c-5 -55 -22 -45
-22 13 0 28 3 50 8 50 4 0 21 -17 39 -37 l32 -38 1 43 c0 23 2 42 5 42 3 0 5
-25 5 -55z m90 45 c0 -5 -11 -10 -25 -10 -32 0 -34 -29 -2 -31 l22 -2 -22 -4
c-34 -6 -30 -41 5 -46 25 -4 25 -4 -5 -6 l-33 -1 0 55 c0 54 0 55 30 55 17 0
30 -4 30 -10z m90 0 c0 -5 -7 -10 -15 -10 -11 0 -15 -12 -15 -45 0 -25 -4 -45
-10 -45 -5 0 -10 20 -10 45 0 33 -4 45 -15 45 -8 0 -15 5 -15 10 0 6 18 10 40
10 22 0 40 -4 40 -10z m36 -38 l10 -37 13 38 c7 20 16 37 21 37 5 0 14 -17 21
-37 l12 -38 15 45 c19 57 27 40 9 -20 -15 -52 -28 -55 -41 -11 -5 17 -12 31
-16 31 -4 0 -11 -14 -16 -31 -5 -17 -13 -30 -18 -30 -9 0 -35 72 -36 95 0 19
15 -7 26 -42z m205 38 c22 -12 27 -68 7 -88 -27 -27 -88 0 -88 40 0 20 33 58
51 58 6 0 19 -5 30 -10z m93 4 c17 -7 22 -54 6 -54 -6 0 -3 -12 7 -27 l17 -28
-25 23 c-14 12 -28 22 -31 22 -4 0 -9 -10 -11 -22 -2 -13 -5 3 -6 35 -1 59 5
66 43 51z m64 -44 c3 0 20 12 36 28 l31 27 -24 -28 -25 -27 22 -30 c13 -17 18
-30 13 -30 -6 0 -18 11 -27 25 -21 32 -32 32 -37 -2 -2 -16 -4 -1 -4 32 0 33
2 48 4 33 2 -16 7 -28 11 -28z m-758 -4 c0 -38 3 -45 23 -49 16 -3 13 -5 -10
-6 l-33 -1 0 50 c0 28 5 50 10 50 6 0 10 -20 10 -44z"/>
<path d="M1042 594 c-20 -13 -22 -24 -22 -94 0 -76 1 -78 28 -88 62 -21 97 24
89 117 -6 75 -44 101 -95 65z"/>
<path d="M1406 594 c-32 -32 -20 -44 44 -44 51 0 60 3 60 18 0 10 -5 23 -12
30 -17 17 -74 15 -92 -4z"/>
<path d="M2550 450 c-26 -26 -16 -50 22 -50 43 0 68 17 68 45 0 22 -4 25 -35
25 -22 0 -43 -8 -55 -20z"/>
<path d="M1440 179 c0 -14 5 -19 17 -17 26 5 29 38 4 38 -15 0 -21 -6 -21 -21z"/>
<path d="M1530 180 c0 -22 1 -23 24 -14 23 9 20 34 -4 34 -13 0 -20 -7 -20
-20z"/>
<path d="M1615 180 c-8 -26 11 -60 34 -60 27 0 44 26 37 55 -5 20 -13 25 -36
25 -20 0 -31 -6 -35 -20z"/>
<path d="M2104 176 c-8 -32 12 -58 40 -54 17 2 21 10 21 38 0 31 -3 35 -27 38
-22 3 -29 -2 -34 -22z"/>
<path d="M2347 170 c-4 -15 0 -20 13 -20 13 0 17 5 13 20 -3 11 -9 20 -13 20
-4 0 -10 -9 -13 -20z"/>
<path d="M2987 194 c-13 -13 -7 -51 9 -65 23 -19 49 1 49 37 0 24 -5 30 -25
32 -14 2 -29 0 -33 -4z"/>
<path d="M3100 187 c0 -19 10 -27 26 -20 21 8 17 33 -6 33 -11 0 -20 -6 -20
-13z"/>
</g>
</svg>
